<svg width="1440" height="960" viewBox="0 0 1440 960" fill="none" xmlns="http://www.w3.org/2000/svg">
  <rect width="1440" height="960" fill="#F6F8FB"/>
  <rect width="248" height="960" fill="#121D2A"/>
  <rect x="24" y="30" width="38" height="38" rx="8" fill="#008F85"/>
  <text x="74" y="57" fill="white" font-family="Arial" font-size="25" font-weight="700">CobreFlow</text>
  <rect x="18" y="112" width="212" height="48" rx="8" fill="#007F78"/>
  <text x="44" y="143" fill="white" font-family="Arial" font-size="15" font-weight="700">Painel</text>
  <text x="44" y="205" fill="#CBD7E5" font-family="Arial" font-size="15" font-weight="700">Recebíveis</text>
  <text x="44" y="260" fill="#CBD7E5" font-family="Arial" font-size="15" font-weight="700">Conciliação</text>
  <text x="44" y="315" fill="#CBD7E5" font-family="Arial" font-size="15" font-weight="700">Cobranças</text>
  <text x="44" y="370" fill="#CBD7E5" font-family="Arial" font-size="15" font-weight="700">Relatorios</text>
  <text x="276" y="58" fill="#18212F" font-family="Arial" font-size="31" font-weight="800">Painel financeiro</text>
  <text x="276" y="86" fill="#667085" font-family="Arial" font-size="16">Recebíveis, conciliação e cobrança ativa em um fluxo único.</text>
  <rect x="1080" y="28" width="126" height="44" rx="8" fill="white" stroke="#DCE3EA"/>
  <text x="1110" y="56" fill="#18212F" font-family="Arial" font-size="15" font-weight="700">Atualizar</text>
  <rect x="1220" y="28" width="172" height="44" rx="8" fill="#008F85"/>
  <text x="1246" y="56" fill="white" font-family="Arial" font-size="15" font-weight="700">Rodar automação</text>
  <g>
    <rect x="276" y="120" width="250" height="118" rx="8" fill="white" stroke="#DCE3EA"/>
    <circle cx="316" cy="166" r="25" fill="#008F85"/>
    <text x="355" y="158" fill="#667085" font-family="Arial" font-size="14">Entrada prevista</text>
    <text x="355" y="190" fill="#18212F" font-family="Arial" font-size="25" font-weight="800">R$ 47.430</text>
  </g>
  <g>
    <rect x="546" y="120" width="250" height="118" rx="8" fill="white" stroke="#DCE3EA"/>
    <circle cx="586" cy="166" r="25" fill="#EF4444"/>
    <text x="625" y="158" fill="#667085" font-family="Arial" font-size="14">Vencido</text>
    <text x="625" y="190" fill="#EF4444" font-family="Arial" font-size="25" font-weight="800">R$ 38.740</text>
  </g>
  <g>
    <rect x="816" y="120" width="250" height="118" rx="8" fill="white" stroke="#DCE3EA"/>
    <circle cx="856" cy="166" r="25" fill="#F59E0B"/>
    <text x="895" y="158" fill="#667085" font-family="Arial" font-size="14">Conciliação</text>
    <text x="895" y="190" fill="#18212F" font-family="Arial" font-size="25" font-weight="800">R$ 6.680</text>
  </g>
  <g>
    <rect x="1086" y="120" width="306" height="118" rx="8" fill="white" stroke="#DCE3EA"/>
    <circle cx="1126" cy="166" r="25" fill="#334155"/>
    <text x="1165" y="158" fill="#667085" font-family="Arial" font-size="14">Prioridade</text>
    <text x="1165" y="190" fill="#18212F" font-family="Arial" font-size="25" font-weight="800">7 ações</text>
  </g>
  <rect x="276" y="260" width="790" height="640" rx="8" fill="white" stroke="#DCE3EA"/>
  <text x="300" y="303" fill="#18212F" font-family="Arial" font-size="22" font-weight="800">Recebíveis</text>
  <rect x="300" y="334" width="742" height="42" fill="#F8FAFC"/>
  <text x="324" y="360" fill="#475467" font-family="Arial" font-size="13" font-weight="700">FATURA / CLIENTE</text>
  <text x="520" y="360" fill="#475467" font-family="Arial" font-size="13" font-weight="700">VENCIMENTO</text>
  <text x="670" y="360" fill="#475467" font-family="Arial" font-size="13" font-weight="700">SALDO</text>
  <text x="790" y="360" fill="#475467" font-family="Arial" font-size="13" font-weight="700">RISCO</text>
  <text x="905" y="360" fill="#475467" font-family="Arial" font-size="13" font-weight="700">STATUS</text>
  <g font-family="Arial" font-size="15">
    <text x="324" y="420" fill="#18212F" font-weight="700">INV-2026-0980</text>
    <text x="324" y="445" fill="#667085">NextGen Tech</text>
    <text x="520" y="420" fill="#18212F">2026-05-29</text>
    <text x="670" y="420" fill="#EF4444" font-weight="700">R$ 9.800</text>
    <circle cx="813" cy="414" r="18" fill="#FFF1F2" stroke="#FCA5A5"/>
    <text x="804" y="420" fill="#DC2626" font-weight="700">94</text>
    <rect x="900" y="397" width="80" height="30" rx="15" fill="#FEE2E2"/>
    <text x="917" y="417" fill="#DC2626" font-size="13" font-weight="700">Vencido</text>
    <line x1="300" y1="470" x2="1042" y2="470" stroke="#DCE3EA"/>
    <text x="324" y="520" fill="#18212F" font-weight="700">INV-2026-1047</text>
    <text x="324" y="545" fill="#667085">Studio Alpha</text>
    <text x="520" y="520" fill="#18212F">2026-06-01</text>
    <text x="670" y="520" fill="#EF4444" font-weight="700">R$ 7.500</text>
    <circle cx="813" cy="514" r="18" fill="#FFF1F2" stroke="#FCA5A5"/>
    <text x="804" y="520" fill="#DC2626" font-weight="700">90</text>
    <rect x="900" y="497" width="80" height="30" rx="15" fill="#FEE2E2"/>
    <text x="917" y="517" fill="#DC2626" font-size="13" font-weight="700">Vencido</text>
  </g>
  <rect x="1086" y="260" width="306" height="640" rx="8" fill="white" stroke="#DCE3EA"/>
  <text x="1110" y="303" fill="#18212F" font-family="Arial" font-size="21" font-weight="800">Automação de cobrança</text>
  <rect x="1110" y="346" width="258" height="96" rx="8" fill="#F8FAFC" stroke="#DCE3EA"/>
  <text x="1130" y="377" fill="#18212F" font-family="Arial" font-size="15" font-weight="700">NextGen Tech</text>
  <text x="1130" y="405" fill="#667085" font-family="Arial" font-size="14">Escalonar alto risco</text>
  <rect x="1110" y="462" width="258" height="96" rx="8" fill="#F8FAFC" stroke="#DCE3EA"/>
  <text x="1130" y="493" fill="#18212F" font-family="Arial" font-size="15" font-weight="700">Studio Alpha</text>
  <text x="1130" y="521" fill="#667085" font-family="Arial" font-size="14">Tarefa interna</text>
  <rect x="1110" y="820" width="258" height="44" rx="8" fill="white" stroke="#DCE3EA"/>
  <text x="1145" y="848" fill="#18212F" font-family="Arial" font-size="14" font-weight="700">Conciliar pagamentos pendentes</text>
</svg>
